<?xml version="1.0" encoding="utf-8"?>
<!-- Generator: Adobe Illustrator 22.1.0, SVG Export Plug-In . SVG Version: 6.00 Build 0)  -->
<svg version="1.1" id="Layer_1" xmlns="http://www.w3.org/2000/svg" xmlns:xlink="http://www.w3.org/1999/xlink" x="0px" y="0px"
	 viewBox="0 0 167.7 46.9" style="enable-background:new 0 0 167.7 46.9;" xml:space="preserve">
<style type="text/css">
	.st0{fill:#FFFFFF;}
</style>
<g>
	<g>
		<path class="st0" d="M79.4,37.5H80v7h-0.7V37.5z"/>
		<path class="st0" d="M82,41.2c0-0.1,0-0.2,0-0.3c0-0.1,0-0.2,0-0.4c0-0.1,0-0.2,0-0.4c0-0.1,0-0.2,0-0.3h0.6c0,0.2,0,0.3,0,0.5
			c0,0.2,0,0.3,0,0.3h0c0.1-0.3,0.3-0.5,0.6-0.7c0.3-0.2,0.6-0.3,1-0.3c0.4,0,0.6,0.1,0.9,0.2c0.2,0.1,0.4,0.3,0.5,0.4
			c0.1,0.2,0.2,0.4,0.3,0.6c0,0.2,0.1,0.5,0.1,0.7v2.7h-0.6v-2.7c0-0.2,0-0.4,0-0.5s-0.1-0.3-0.2-0.5c-0.1-0.1-0.2-0.2-0.3-0.3
			s-0.3-0.1-0.6-0.1c-0.2,0-0.4,0-0.6,0.1c-0.2,0.1-0.4,0.2-0.5,0.3c-0.1,0.2-0.3,0.4-0.3,0.6c-0.1,0.2-0.1,0.5-0.1,0.8v2.3H82V41.2
			z"/>
		<path class="st0" d="M87.6,43.3c0.1,0.2,0.3,0.4,0.6,0.6c0.2,0.1,0.5,0.2,0.8,0.2c0.1,0,0.3,0,0.4-0.1c0.1,0,0.2-0.1,0.3-0.2
			c0.1-0.1,0.2-0.2,0.2-0.3c0.1-0.1,0.1-0.2,0.1-0.4c0-0.2-0.1-0.4-0.2-0.5c-0.1-0.1-0.3-0.2-0.5-0.2s-0.4-0.1-0.7-0.2
			c-0.2,0-0.5-0.1-0.7-0.2c-0.2-0.1-0.4-0.2-0.5-0.4c-0.1-0.2-0.2-0.4-0.2-0.7c0-0.2,0-0.4,0.1-0.6c0.1-0.2,0.2-0.3,0.4-0.4
			s0.3-0.2,0.5-0.2c0.2-0.1,0.4-0.1,0.6-0.1c0.4,0,0.7,0.1,1,0.2s0.5,0.4,0.6,0.7L90,41c-0.1-0.2-0.3-0.4-0.4-0.5s-0.4-0.2-0.7-0.2
			c-0.1,0-0.2,0-0.3,0c-0.1,0-0.2,0.1-0.3,0.1c-0.1,0.1-0.2,0.1-0.2,0.2s-0.1,0.2-0.1,0.3c0,0.2,0.1,0.4,0.2,0.5
			c0.1,0.1,0.3,0.2,0.5,0.2c0.2,0.1,0.4,0.1,0.7,0.1c0.2,0,0.5,0.1,0.7,0.2s0.4,0.2,0.5,0.4c0.1,0.2,0.2,0.4,0.2,0.7
			c0,0.2,0,0.4-0.1,0.6c-0.1,0.2-0.2,0.3-0.4,0.4c-0.2,0.1-0.3,0.2-0.5,0.3s-0.4,0.1-0.6,0.1c-0.4,0-0.8-0.1-1.1-0.2
			c-0.3-0.2-0.6-0.4-0.8-0.7L87.6,43.3z"/>
		<path class="st0" d="M92,38.1c0-0.1,0-0.2,0.1-0.3c0.1-0.1,0.2-0.1,0.3-0.1c0.1,0,0.2,0,0.3,0.1c0.1,0.1,0.1,0.2,0.1,0.3
			c0,0.1,0,0.2-0.1,0.3c-0.1,0.1-0.2,0.1-0.3,0.1c-0.1,0-0.2,0-0.3-0.1C92,38.3,92,38.2,92,38.1z M92.1,39.9h0.6v4.6h-0.6V39.9z"/>
		<path class="st0" d="M99.2,44.2c0,0.6-0.1,1-0.2,1.4s-0.4,0.6-0.6,0.8c-0.2,0.2-0.5,0.3-0.8,0.4c-0.3,0.1-0.5,0.1-0.8,0.1
			s-0.5,0-0.7-0.1c-0.2,0-0.4-0.1-0.6-0.2c-0.2-0.1-0.4-0.2-0.5-0.3c-0.2-0.1-0.3-0.3-0.4-0.4l0.5-0.4c0.2,0.3,0.5,0.5,0.8,0.7
			s0.7,0.2,1,0.2c0.3,0,0.6,0,0.8-0.1c0.2-0.1,0.4-0.2,0.5-0.3c0.1-0.1,0.2-0.3,0.3-0.4c0.1-0.2,0.1-0.3,0.2-0.5s0.1-0.3,0.1-0.4
			c0-0.1,0-0.3,0-0.3v-0.6h0c-0.2,0.3-0.4,0.5-0.7,0.7c-0.3,0.2-0.6,0.2-1,0.2c-0.3,0-0.7-0.1-1-0.2c-0.3-0.1-0.6-0.3-0.8-0.5
			c-0.2-0.2-0.4-0.5-0.5-0.8c-0.1-0.3-0.2-0.6-0.2-0.9s0.1-0.6,0.2-0.9c0.1-0.3,0.3-0.5,0.5-0.7c0.2-0.2,0.5-0.4,0.8-0.5
			c0.3-0.1,0.6-0.2,1-0.2c0.4,0,0.7,0.1,1,0.2c0.3,0.2,0.5,0.4,0.7,0.7h0v-0.8h0.6V44.2z M98.6,42.2c0-0.3,0-0.5-0.1-0.7
			c-0.1-0.2-0.2-0.4-0.4-0.6c-0.2-0.2-0.4-0.3-0.6-0.4c-0.2-0.1-0.5-0.1-0.7-0.1c-0.3,0-0.5,0-0.7,0.1c-0.2,0.1-0.4,0.2-0.6,0.4
			c-0.2,0.2-0.3,0.4-0.4,0.6c-0.1,0.2-0.1,0.5-0.1,0.7c0,0.3,0,0.5,0.1,0.7c0.1,0.2,0.2,0.4,0.4,0.6s0.4,0.3,0.6,0.4
			c0.2,0.1,0.5,0.1,0.7,0.1c0.3,0,0.5,0,0.7-0.1c0.2-0.1,0.4-0.2,0.6-0.4c0.2-0.2,0.3-0.4,0.4-0.6C98.5,42.7,98.6,42.4,98.6,42.2z"
			/>
		<path class="st0" d="M100.8,37h0.6v3.7h0c0.1-0.3,0.3-0.5,0.6-0.7c0.3-0.2,0.6-0.3,1-0.3c0.4,0,0.6,0.1,0.9,0.2
			c0.2,0.1,0.4,0.3,0.5,0.4c0.1,0.2,0.2,0.4,0.3,0.6c0,0.2,0.1,0.5,0.1,0.7v2.7h-0.6v-2.7c0-0.2,0-0.4,0-0.5s-0.1-0.3-0.2-0.5
			c-0.1-0.1-0.2-0.2-0.3-0.3s-0.3-0.1-0.6-0.1c-0.2,0-0.4,0-0.6,0.1c-0.2,0.1-0.4,0.2-0.5,0.3c-0.1,0.2-0.3,0.4-0.3,0.6
			c-0.1,0.2-0.1,0.5-0.1,0.8v2.3h-0.6V37z"/>
		<path class="st0" d="M108.7,40.5h-1.3v3c0,0.2,0.1,0.4,0.2,0.5c0.1,0.1,0.3,0.2,0.5,0.2c0.1,0,0.2,0,0.3,0c0.1,0,0.2-0.1,0.3-0.1
			l0,0.5c-0.1,0-0.2,0.1-0.4,0.1s-0.3,0-0.4,0c-0.2,0-0.4,0-0.5-0.1c-0.2-0.1-0.3-0.1-0.4-0.3s-0.2-0.2-0.2-0.4
			c0-0.1-0.1-0.3-0.1-0.5v-3h-1v-0.5h1v-1.3h0.6v1.3h1.3V40.5z"/>
		<path class="st0" d="M109.9,43.3c0.1,0.2,0.3,0.4,0.6,0.6c0.2,0.1,0.5,0.2,0.8,0.2c0.1,0,0.3,0,0.4-0.1c0.1,0,0.2-0.1,0.3-0.2
			c0.1-0.1,0.2-0.2,0.2-0.3c0.1-0.1,0.1-0.2,0.1-0.4c0-0.2-0.1-0.4-0.2-0.5c-0.1-0.1-0.3-0.2-0.5-0.2s-0.4-0.1-0.7-0.2
			c-0.2,0-0.5-0.1-0.7-0.2c-0.2-0.1-0.4-0.2-0.5-0.4c-0.1-0.2-0.2-0.4-0.2-0.7c0-0.2,0-0.4,0.1-0.6c0.1-0.2,0.2-0.3,0.4-0.4
			s0.3-0.2,0.5-0.2c0.2-0.1,0.4-0.1,0.6-0.1c0.4,0,0.7,0.1,1,0.2s0.5,0.4,0.6,0.7l-0.5,0.3c-0.1-0.2-0.3-0.4-0.4-0.5
			s-0.4-0.2-0.7-0.2c-0.1,0-0.2,0-0.3,0c-0.1,0-0.2,0.1-0.3,0.1c-0.1,0.1-0.2,0.1-0.2,0.2s-0.1,0.2-0.1,0.3c0,0.2,0.1,0.4,0.2,0.5
			c0.1,0.1,0.3,0.2,0.5,0.2c0.2,0.1,0.4,0.1,0.7,0.1c0.2,0,0.5,0.1,0.7,0.2s0.4,0.2,0.5,0.4c0.1,0.2,0.2,0.4,0.2,0.7
			c0,0.2,0,0.4-0.1,0.6c-0.1,0.2-0.2,0.3-0.4,0.4c-0.2,0.1-0.3,0.2-0.5,0.3s-0.4,0.1-0.6,0.1c-0.4,0-0.8-0.1-1.1-0.2
			c-0.3-0.2-0.6-0.4-0.8-0.7L109.9,43.3z"/>
	</g>
	<path class="st0" d="M42.3,37.3c1.5-2.3,2.8-4.8,4.2-7.2c1.1-2,2.2-3.9,3.2-5.9c0.2-0.3,0.3-0.5,0.8-0.5c4.6,0,9.2,0,13.8,0
		c0.1,0,0.2,0,0.3,0c0.1,0.3-0.1,0.4-0.2,0.6c-3.3,5.6-6.7,11.1-10,16.7c-1.1,1.9-2.7,2.8-4.8,2.7c-0.2,0-0.3-0.1-0.5-0.1
		c-1.8-0.4-3.3-1.3-4.4-2.8c-0.7-1-1.4-2-2-3C42.5,37.6,42.3,37.5,42.3,37.3z"/>
	<path class="st0" d="M73.2,7.1c-1,1.7-2,3.4-3,5.1c-1.3,2.3-2.6,4.6-3.9,6.9c-0.2,0.3-0.3,0.4-0.7,0.4c-4.6,0-9.2,0-13.8,0
		c-0.1,0-0.2,0-0.3,0c-0.1-0.2,0-0.3,0.1-0.4c3.3-5.4,6.5-10.7,9.8-16.1c0.7-1.1,1.9-1.6,3.1-1.9C65.1,1,65.6,1,66.2,1.1
		c1.3,0.1,2.4,0.6,3.4,1.4c1.5,1.2,2.6,2.8,3.6,4.4C73.2,7,73.2,7.1,73.2,7.1z"/>
	<path class="st0" d="M41.3,38.3c0,0.2,0.2,0.4,0.3,0.5c0.7,1,1.4,2,2,3c1.1,1.5,2.5,2.5,4.4,2.8c0.2,0,0.3,0.1,0.5,0.1
		c-1.1,0.1-2.2,0-3.3,0c-3.4,0-6.9,0-10.3,0c-0.3,0-0.5,0-0.8,0c-1.4-0.1-2.4-0.6-3.2-1.8c-1-1.6-2-3.2-2.9-4.7
		c-1.9-3.1-3.8-6.1-5.7-9.2c-0.1-0.2-0.3-0.3-0.3-0.6c0.2-0.1,0.4-0.1,0.6-0.1c4,0,8,0,11.9,0c0.5,0,0.7,0.2,1,0.6
		c1.7,3,3.5,6,5.4,8.9C41.1,38,41.1,38.1,41.3,38.3z"/>
	<path class="st0" d="M74.2,6.1c0-0.1,0-0.2-0.1-0.3c-0.9-1.7-2.1-3.2-3.6-4.4c-1-0.8-2.1-1.3-3.4-1.4C67.6,0,68,0,68.4,0
		c3,0,5.9,0,8.9,0c0.9,0,1.9,0,2.8,0.2c1.8,0.4,3.3,1.3,4.4,3c2.4,3.7,4.9,7.5,7.4,11.2c0.1,0.2,0.3,0.4,0.4,0.7
		c-0.2,0.1-0.4,0.1-0.6,0.1c-3.8,0-7.5,0-11.3,0c-0.4,0-0.7-0.1-0.9-0.5c-1.6-2.7-3.2-5.3-4.9-8C74.5,6.5,74.4,6.3,74.2,6.1z"/>
	<path class="st0" d="M20.3,10.9c1.3-0.1,2.6,0,3.8,0.4c1.3,0.4,2.3,1.1,3.1,2.3c2.1,3.4,4.3,6.8,6.5,10.2c0.1,0.2,0.3,0.3,0.3,0.5
		c-0.1,0.1-0.3,0.1-0.5,0.1c-4,0-8.1,0-12.1,0c-0.5,0-0.7-0.2-0.9-0.6c-1.3-2.7-2.8-5.3-4.5-7.8c-0.1-0.2-0.3-0.4-0.5-0.6
		c0.3-0.8,0.7-1.6,1.3-2.3C17.7,11.8,18.9,11.1,20.3,10.9z"/>
	<path class="st0" d="M19.3,9.9c-1.5,0.2-2.6,1-3.5,2.1c-0.5,0.7-1,1.5-1.3,2.3c-0.7,1.1-1.2,2.4-1.9,3.5c-0.6,1.2-1.2,2.4-1.9,3.6
		c-0.1,0.2-0.2,0.4-0.5,0.4c-3.4,0-6.8,0-10.2,0c-0.1-0.2,0-0.3,0.1-0.4c2.2-3.4,4.3-6.8,6.5-10.2C7.2,10.5,8,10,9,9.9
		c0.3,0,0.7,0,1,0c2.8,0,5.6,0,8.5,0C18.7,9.8,19,9.8,19.3,9.9z"/>
	<g>
		<path class="st0" d="M91.9,31.3c-0.7,0.9-1.6,1.6-2.7,2.1c-1.1,0.5-2.2,0.7-3.3,0.7c-1.1,0-2.1-0.2-3.1-0.5
			c-1-0.3-1.8-0.9-2.5-1.5c-0.7-0.7-1.3-1.4-1.7-2.3c-0.4-0.9-0.6-1.9-0.6-3.1c0-1.1,0.2-2.1,0.6-3.1c0.4-0.9,1-1.7,1.7-2.3
			c0.7-0.7,1.5-1.2,2.5-1.5c1-0.3,2-0.5,3.1-0.5c1,0,1.9,0.2,2.8,0.5c0.8,0.4,1.5,0.9,2.1,1.5c0.6,0.7,1,1.4,1.3,2.3
			c0.3,0.9,0.5,1.9,0.5,3.1V28H82.4c0.2,0.8,0.6,1.5,1.1,2c0.6,0.5,1.3,0.7,2.2,0.7c0.7,0,1.3-0.2,1.8-0.5c0.5-0.3,0.9-0.7,1.3-1.2
			L91.9,31.3z M88.2,25c0-0.7-0.2-1.4-0.7-1.9c-0.5-0.5-1.2-0.8-2-0.8c-0.5,0-0.9,0.1-1.3,0.2c-0.4,0.2-0.7,0.4-0.9,0.6
			c-0.3,0.2-0.5,0.5-0.6,0.8c-0.1,0.3-0.2,0.7-0.2,1H88.2z"/>
		<path class="st0" d="M95.2,19.6h4.2v1.9h0.1c0.1-0.3,0.3-0.5,0.6-0.8c0.3-0.3,0.6-0.5,0.9-0.7c0.3-0.2,0.7-0.4,1.2-0.5
			c0.4-0.1,0.9-0.2,1.5-0.2c1.1,0,2,0.2,2.7,0.5c0.7,0.3,1.2,0.8,1.6,1.4c0.4,0.6,0.6,1.3,0.8,2.1c0.1,0.8,0.2,1.7,0.2,2.7v7.8h-4.4
			v-6.9c0-0.4,0-0.8,0-1.3c0-0.4-0.1-0.8-0.3-1.2c-0.1-0.4-0.4-0.7-0.7-0.9c-0.3-0.2-0.7-0.4-1.3-0.4c-0.6,0-1,0.1-1.4,0.3
			c-0.3,0.2-0.6,0.5-0.8,0.8c-0.2,0.3-0.3,0.7-0.4,1.2c-0.1,0.4-0.1,0.9-0.1,1.3v7.1h-4.4V19.6z"/>
		<path class="st0" d="M120.9,32L120.9,32c-0.5,0.8-1.2,1.3-2,1.6c-0.8,0.3-1.7,0.5-2.6,0.5c-0.7,0-1.3-0.1-1.9-0.3
			c-0.6-0.2-1.2-0.5-1.6-0.8c-0.5-0.4-0.8-0.8-1.1-1.4c-0.3-0.5-0.4-1.2-0.4-1.9c0-0.8,0.1-1.5,0.5-2.1c0.3-0.6,0.7-1,1.2-1.4
			c0.5-0.4,1.1-0.7,1.8-0.9c0.7-0.2,1.3-0.4,2.1-0.5c0.7-0.1,1.4-0.2,2.1-0.2c0.7,0,1.4,0,2,0c0-0.8-0.3-1.4-0.8-1.9
			c-0.6-0.5-1.2-0.7-2-0.7c-0.7,0-1.4,0.2-2,0.5c-0.6,0.3-1.1,0.7-1.6,1.2l-2.3-2.4c0.8-0.8,1.8-1.3,2.9-1.7
			c1.1-0.4,2.2-0.6,3.4-0.6c1.3,0,2.3,0.2,3.2,0.5s1.5,0.8,2,1.4c0.5,0.6,0.8,1.4,1,2.3c0.2,0.9,0.3,1.9,0.3,3.1v7.2h-4V32z
			 M119.8,27.5c-0.3,0-0.7,0-1.2,0c-0.5,0-1,0.1-1.4,0.2c-0.5,0.1-0.8,0.3-1.2,0.6c-0.3,0.3-0.5,0.7-0.5,1.1c0,0.5,0.2,0.9,0.7,1.2
			c0.4,0.3,0.9,0.4,1.4,0.4c0.4,0,0.8-0.1,1.2-0.2c0.4-0.1,0.8-0.3,1.1-0.5c0.3-0.2,0.6-0.5,0.7-0.8c0.2-0.3,0.3-0.7,0.3-1.2v-0.9
			H119.8z"/>
		<path class="st0" d="M128,11.7h4.4v9.4h0.1c0.5-0.7,1.2-1.2,1.9-1.4c0.8-0.3,1.6-0.4,2.6-0.4c1,0,1.9,0.2,2.7,0.6
			c0.8,0.4,1.5,1,2,1.7c0.6,0.7,1,1.5,1.3,2.4c0.3,0.9,0.5,1.9,0.5,2.8c0,1.1-0.2,2.1-0.5,2.9c-0.3,0.9-0.8,1.7-1.4,2.3
			c-0.6,0.7-1.3,1.2-2.2,1.5c-0.9,0.4-1.8,0.5-2.9,0.5c-0.5,0-1-0.1-1.4-0.2c-0.4-0.1-0.9-0.3-1.2-0.5c-0.4-0.2-0.7-0.5-1-0.7
			c-0.3-0.3-0.5-0.5-0.7-0.8h-0.1v1.9h-4V11.7z M132.1,26.7c0,1.1,0.3,1.9,0.9,2.6c0.6,0.7,1.5,1,2.6,1c1.1,0,2-0.3,2.6-1
			c0.6-0.7,0.9-1.5,0.9-2.6c0-1.1-0.3-1.9-0.9-2.6c-0.6-0.7-1.5-1-2.6-1c-1.1,0-2,0.3-2.6,1S132.1,25.6,132.1,26.7z"/>
		<path class="st0" d="M146.1,11.7h4.4v22.1h-4.4V11.7z"/>
		<path class="st0" d="M167,31.3c-0.7,0.9-1.6,1.6-2.7,2.1c-1.1,0.5-2.2,0.7-3.3,0.7c-1.1,0-2.1-0.2-3.1-0.5c-1-0.3-1.8-0.9-2.5-1.5
			c-0.7-0.7-1.3-1.4-1.7-2.3c-0.4-0.9-0.6-1.9-0.6-3.1c0-1.1,0.2-2.1,0.6-3.1c0.4-0.9,1-1.7,1.7-2.3c0.7-0.7,1.5-1.2,2.5-1.5
			c1-0.3,2-0.5,3.1-0.5c1,0,1.9,0.2,2.8,0.5c0.8,0.4,1.5,0.9,2.1,1.5c0.6,0.7,1,1.4,1.3,2.3c0.3,0.9,0.5,1.9,0.5,3.1V28h-10.2
			c0.2,0.8,0.6,1.5,1.1,2c0.6,0.5,1.3,0.7,2.2,0.7c0.7,0,1.3-0.2,1.8-0.5c0.5-0.3,0.9-0.7,1.3-1.2L167,31.3z M163.3,25
			c0-0.7-0.2-1.4-0.7-1.9c-0.5-0.5-1.2-0.8-2-0.8c-0.5,0-0.9,0.1-1.3,0.2c-0.4,0.2-0.7,0.4-0.9,0.6c-0.3,0.2-0.5,0.5-0.6,0.8
			c-0.1,0.3-0.2,0.7-0.2,1H163.3z"/>
	</g>
</g>
</svg>
